PathFileType	3	(X/Y/Z)	D:\Vicon Setup\UG\Test1\New Session\NewSession09.trc
DataRate	CameraRate	NumFrames	NumMarkers	Units	OrigDataRate	OrigDataStartFrame	OrigNumFrames
100.0	100.0	5	27	mm	100.0	1	911	
Frame#	Time	Sternum			LShoulder			RShoulder			LASIS			RASIS			RPSIS			LPSIS			RKneeLateral			RKneeMedial			RFibulaHead			RMidShank			RAnkleLateral			RAnkleMedial			RHeel			RMT5			RMT2			RToe			LKneeLateral			LKneeMedial			LFibulaHead			LMidShank			LAnkleLateral			LAnkleMedial			LHeel			LMT5			LMT2			LToe			
		X1	Y1	Z1	X2	Y2	Z2	X3	Y3	Z3	X4	Y4	Z4	X5	Y5	Z5	X6	Y6	Z6	X7	Y7	Z7	X8	Y8	Z8	X9	Y9	Z9	X10	Y10	Z10	X11	Y11	Z11	X12	Y12	Z12	X13	Y13	Z13	X14	Y14	Z14	X15	Y15	Z15	X16	Y16	Z16	X17	Y17	Z17	X18	Y18	Z18	X19	Y19	Z19	X20	Y20	Z20	X21	Y21	Z21	X22	Y22	Z22	X23	Y23	Z23	X24	Y24	Z24	X25	Y25	Z25	X26	Y26	Z26	X27	Y27	Z27	
1	0	259.45758	1386.1462	-1604.6052	75.035194	1439.5392	-1491.6713	447.04529	1415.4604	-1522.5488	139.24672	995.9939	-1600.549	398.97794	1005.2708	-1598.7585	327.00635	1021.4984	-1423.8149	197.13954	1016.5684	-1418.9224	448.12863	538.92773	-1479.2885	323.69858	498.58545	-1524.7714	458.31961	458.25879	-1471.0529	404.3714	287.66904	-1517.8553	475.02524	92.801048	-1459.8073	404.86075	119.18521	-1522.0308	405.75446	61.332844	-1404.4421	553.81427	32.421776	-1596.8324	489.09918	62.863239	-1616.1285	495.04675	44.265751	-1669.106	90.30677	522.56165	-1498.1719	219.45956	493.80731	-1523.9143	84.961266	461.93085	-1479.0087	144.93848	300.30997	-1516.7338	79.284409	100.30708	-1448.7087	156.76048	113.93584	-1498.8862	145.53532	63.211403	-1386.3326	13.637952	43.899578	-1572.9473	72.758041	61.804375	-1600.7456	58.779964	42.109859	-1660.4027
2	0.01	259.45471	1386.1511	-1604.6902	75.020889	1439.5686	-1491.7644	447.0412	1415.4652	-1522.6317	139.21977	996.01093	-1600.6003	398.95682	1005.2769	-1598.7925	326.9671	1021.5284	-1423.8462	197.10139	1016.5883	-1418.9747	448.08771	538.94617	-1479.2987	323.67267	498.58667	-1524.8022	458.28125	458.28323	-1471.0604	404.35428	287.68289	-1517.8752	475.01132	92.817612	-1459.8186	404.85391	119.19139	-1522.0458	405.74072	61.351112	-1404.4504	553.8089	32.426643	-1596.8318	489.09439	62.871128	-1616.1416	495.04538	44.263775	-1669.1094	90.2761	522.57166	-1498.2228	219.42822	493.83621	-1523.9651	84.935608	461.94217	-1479.0522	144.92001	300.3259	-1516.7693	79.282738	100.32338	-1448.7188	156.75241	113.94604	-1498.8986	145.53197	63.228882	-1386.3369	13.633069	43.897682	-1572.9486	72.790604	61.862953	-1600.7557	58.772514	42.109215	-1660.4066
3	0.02	259.45218	1386.156	-1604.8055	74.995361	1439.6122	-1491.8837	447.03333	1415.4717	-1522.7458	139.18024	996.03479	-1600.6669	398.92523	1005.2836	-1598.837	326.91409	1021.5693	-1423.8906	197.04651	1016.6202	-1419.0439	448.03378	538.96967	-1479.3175	323.63846	498.58734	-1524.8457	458.23071	458.31534	-1471.0735	404.33319	287.69788	-1517.9017	474.99484	92.839119	-1459.8328	404.84543	119.19753	-1522.0663	405.72119	61.377148	-1404.464	553.80231	32.431423	-1596.8318	489.08737	62.882683	-1616.1613	495.04297	44.260323	-1669.1179	90.234535	522.58575	-1498.2952	219.38461	493.8739	-1524.0397	84.899826	461.95831	-1479.1149	144.89673	300.34235	-1516.8167	79.278786	100.34502	-1448.7349	156.74258	113.96007	-1498.9159	145.52794	63.252888	-1386.3429	13.629568	43.893776	-1572.9509	72.830246	61.925816	-1600.7701	58.764389	42.107529	-1660.415
4	0.03	259.45084	1386.1604	-1604.9397	74.963074	1439.6642	-1492.0162	447.01962	1415.4777	-1522.8788	139.12979	996.06287	-1600.7406	398.88446	1005.2887	-1598.8883	326.85187	1021.6149	-1423.9431	196.97925	1016.6626	-1419.121	447.9736	538.99377	-1479.3474	323.60013	498.58603	-1524.8989	458.17474	458.35049	-1471.0925	404.3121	287.70987	-1517.9336	474.97885	92.862381	-1459.8477	404.83664	119.20073	-1522.0894	405.69867	61.406971	-1404.4828	553.79559	32.433846	-1596.8328	489.07965	62.89608	-1616.1859	495.04044	44.254753	-1669.1326	90.186401	522.60236	-1498.3817	219.33609	493.91241	-1524.1257	84.857536	461.97803	-1479.1899	144.87204	300.35559	-1516.8702	79.272346	100.36975	-1448.7551	156.73302	113.97493	-1498.9354	145.52386	63.280159	-1386.3485	13.629046	43.887436	-1572.9546	72.861343	61.967285	-1600.7838	58.757721	42.104088	-1660.429
5	0.04	259.4509	1386.1647	-1605.0811	74.938866	1439.7137	-1492.1594	446.99994	1415.4807	-1523.0187	139.07065	996.09198	-1600.8158	398.83578	1005.291	-1598.9436	326.78455	1021.6583	-1423.999	196.90488	1016.7124	-1419.1989	447.91342	539.01373	-1479.3895	323.56137	498.582	-1524.9589	458.12045	458.38477	-1471.1165	404.29361	287.71677	-1517.9703	474.96552	92.885536	-1459.8604	404.82834	119.19944	-1522.1125	405.67664	61.435745	-1404.5054	553.78967	32.432819	-1596.8344	489.07355	62.908882	-1616.2131	495.03952	44.246361	-1669.1517	90.136169	522.61938	-1498.4719	219.29396	493.94159	-1524.2043	84.812782	461.9996	-1479.2681	144.84828	300.36462	-1516.9248	79.264786	100.39475	-1448.776	156.72514	113.98778	-1498.9536	145.52057	63.306824	-1386.3529	13.632009	43.879227	-1572.9592	72.872368	61.974289	-1600.7909	58.753807	42.097954	-1660.4482
